<?xml version="1.0" standalone="no"?>
<!DOCTYPE svg PUBLIC "-//W3C//DTD SVG 20010904//EN"
 "http://www.w3.org/TR/2001/REC-SVG-20010904/DTD/svg10.dtd">
<svg version="1.0" xmlns="http://www.w3.org/2000/svg"
 width="1300.000000pt" height="1300.000000pt" viewBox="0 0 1300.000000 1300.000000"
 preserveAspectRatio="xMidYMid meet">
<metadata>
Created by potrace 1.16, written by Peter Selinger 2001-2019
</metadata>
<g transform="translate(0.000000,1300.000000) scale(0.100000,-0.100000)"
fill="#000000" stroke="none">
<path d="M6320 9520 c-238 -34 -530 -160 -664 -288 -28 -26 -43 -38 -35 -27 8
12 0 9 -23 -10 -20 -17 -35 -35 -33 -41 2 -6 -23 -38 -56 -70 -32 -32 -59 -54
-59 -50 0 17 -41 -28 -102 -110 l-60 -81 -46 9 c-219 43 -439 36 -667 -23
-505 -129 -911 -501 -1049 -960 -44 -148 -50 -198 -51 -374 0 -175 20 -335 50
-400 8 -16 23 -54 35 -82 67 -175 163 -318 314 -468 127 -126 229 -201 374
-274 l82 -41 1 -698 c0 -383 0 -981 -1 -1328 -1 -682 -1 -681 51 -718 22 -15
197 -16 2111 -16 1302 0 2096 4 2112 10 61 23 57 -72 57 1402 l0 1345 72 34
c258 122 510 363 644 615 47 88 107 243 98 252 -2 3 0 10 5 17 20 24 42 164
47 295 12 294 -70 569 -244 813 -115 163 -324 346 -500 438 -32 17 -62 34 -68
39 -15 12 -176 69 -275 96 -194 54 -429 68 -627 38 -103 -16 -106 -16 -119 2
-7 10 -17 24 -21 29 -5 6 -20 26 -33 45 -38 54 -180 210 -191 210 -6 0 -33 21
-61 48 -144 137 -402 261 -639 307 -100 19 -337 28 -429 15z m311 -210 c520
-60 969 -497 1118 -1088 28 -109 51 -276 51 -367 0 -61 4 -85 20 -110 44 -71
142 -66 182 9 13 23 11 145 -3 286 -6 58 -10 123 -11 145 0 22 -7 51 -15 64
-8 12 -26 62 -40 110 -13 47 -43 130 -65 184 -22 54 -38 100 -36 102 10 10
150 25 233 25 210 0 525 -98 706 -221 315 -213 501 -505 540 -848 10 -83 7
-227 -5 -287 -52 -251 -152 -441 -326 -614 -107 -107 -205 -178 -330 -239 -47
-23 -105 -52 -130 -64 -25 -12 -51 -34 -57 -48 -10 -21 -13 -248 -13 -1023
l-1 -996 -1949 0 -1950 0 -2 1011 -3 1012 -26 20 c-15 10 -67 37 -115 59 -309
137 -571 419 -664 713 -38 122 -40 130 -51 216 -21 161 3 348 67 516 152 400
536 697 999 772 130 21 348 22 368 2 6 -6 19 -11 29 -11 26 0 24 -50 -3 -79
-25 -27 -80 -174 -108 -292 -46 -192 -68 -448 -44 -510 32 -83 148 -86 186 -6
11 23 17 61 17 109 0 201 64 465 164 673 254 533 748 834 1267 775z m1819
-5410 l0 -220 -1950 0 -1950 0 0 220 0 220 1950 0 1950 -1 0 -219z"/>
</g>
</svg>
